<svg xmlns="http://www.w3.org/2000/svg" width="1000" height="1000"><g style="fill:#00000c;fill-opacity:1"><g style="fill:#00a8e8;fill-opacity:.98823529"><g style="fill:#42ff09;fill-opacity:1"><g transform="matrix(-38.75478 0 0 38.79232 -646.308 63.792)" style="fill:#fff;fill-opacity:1"><path style="opacity:1;fill:#fff;fill-opacity:1;stroke:#fdffff;stroke-width:0;stroke-linecap:round;stroke-linejoin:round;stroke-miterlimit:4;stroke-dasharray:none;stroke-opacity:1" d="M-46.49 9.248a.1.1 0 0 0-.045.014l-1.477.853a.1.1 0 0 0 0 .172l1.477.852a.1.1 0 0 0 .148-.086V9.348a.1.1 0 0 0-.103-.1z" transform="matrix(1.70704 0 0 1.9084 39.562 .594)"/><path d="M-16.916 6.865a5.392 5.392 0 0 0-2.538-.811 2.843 2.843 0 0 0-.464 0 4.465 4.465 0 0 0-1.727-2.38.527.527 0 0 0-.674.073 4.276 4.276 0 0 0-.758 3.454.548.548 0 0 1-.137.432.474.474 0 0 1-.358.158h-.474v-2.59a.527.527 0 0 0-.526-.527h-2.633v-5.792a.527.527 0 0 0-.527-.526h-3.159a.527.527 0 0 0-.526.526v2.633h-5.792a.527.527 0 0 0-.527.526v2.633h-2.633a.527.527 0 0 0-.526.527v2.632h-.527a.527.527 0 0 0-.526.527c0 8.077 5.886 8.951 8.424 8.951a15.049 15.049 0 0 0 13.038-7.456 5.402 5.402 0 0 0 3.738-2.285.527.527 0 0 0-.168-.705zm-8.183.968h-2.106V5.727h2.106zm-11.584 0V5.727h2.106v2.106zm3.16 0V5.727h2.106v2.106zm5.265-5.265v2.106h-2.106V2.568zm-2.106 5.265V5.727h2.106v2.106zm0-8.424h2.106v2.106h-2.106zm-1.053 5.265h-2.107V2.568h2.107zm-5.266-2.106h2.106v2.106h-2.106zm-3.16 3.16h2.107v2.105h-2.106zm3.16 7.37a1.053 1.053 0 1 1 1.053-1.052 1.053 1.053 0 0 1-1.053 1.053z" style="fill:#fff;fill-opacity:1;stroke-width:1.05308819"/><path style="opacity:1;fill:#fff;fill-opacity:1;stroke:#fdffff;stroke-width:0;stroke-linecap:round;stroke-linejoin:round;stroke-miterlimit:4;stroke-dasharray:none;stroke-opacity:.95955057" d="m-20.293 19.134-1.63.941 1.574.91h-12.112a1.615 1.615 0 0 0 .294-.926 1.615 1.615 0 0 0-.292-.925zm-14.811 0a1.615 1.615 0 0 0-.294.925 1.615 1.615 0 0 0 .292.926h-5.12v-1.851z"/><circle style="opacity:1;fill:#fff;fill-opacity:1;stroke:#fdffff;stroke-width:0;stroke-linecap:round;stroke-linejoin:round;stroke-miterlimit:4;stroke-dasharray:none;stroke-opacity:.95955057" cx="33.814" cy="20.059" r="1.056" transform="scale(-1 1)"/><path style="opacity:1;fill:#fff;fill-opacity:1;stroke:#fdffff;stroke-width:0;stroke-linecap:round;stroke-linejoin:round;stroke-miterlimit:4;stroke-dasharray:none;stroke-opacity:.95955057" d="M-34.74 21.321a1.615 1.61 0 0 0 .926.293 1.615 1.61 0 0 0 .926-.292v2.812h-1.851zm1.852-5.143v2.51a1.615 1.61 0 0 0-.926-.293 1.615 1.61 0 0 0-.925.29v-2.507z"/></g></g></g></g></svg>