<svg id="Calque_1" data-name="Calque 1" xmlns="http://www.w3.org/2000/svg" viewBox="0 0 1000 1000">
  <g>
    <circle cx="500.01" cy="500.04" r="168.55" transform="translate(-207.13 500.02) rotate(-45)"/>
    <path d="M532.27,252.86l413.91,21.77A499.94,499.94,0,0,0,498.19,0C351,.64,207.06,66.36,111.09,185.72l154,236.7C303.63,311.93,415.13,246,532.27,252.86Z"/>
    <path d="M269.56,596,81.45,226A499.66,499.66,0,0,0,0,500C0,750,183.07,957.1,422.39,993.8L550.81,742.18C434.68,764,322.59,700.24,269.56,596Z"/>
    <path d="M966.34,320.2h0L684.69,334.71C761.1,424,762.31,552.86,698,651.65L472,999.24c93.75,5,190.33-15.52,277.83-66.33C966.34,807.91,1054.05,545.81,966.34,320.2Z"/>
  </g>
</svg>
