<svg id="Calque_1" data-name="Calque 1" xmlns="http://www.w3.org/2000/svg" viewBox="0 0 1000 1000">
  <g>
    <rect x="443.48" y="263.53" width="103.27" height="93.9" fill="#fff"/>
    <rect x="443.48" y="376.34" width="103.27" height="92.81" fill="#fff"/>
    <rect x="443.48" y="149.95" width="103.27" height="94.84" fill="#fff"/>
    <rect x="321.45" y="263.53" width="103.27" height="93.9" fill="#fff"/>
    <polygon points="668.93 376.18 668.93 376.18 565.65 376.18 565.65 468.99 668.93 468.99 668.93 376.18" fill="#fff"/>
    <polygon points="180.84 376.18 180.68 376.18 77.56 376.18 77.56 468.99 180.84 468.99 180.84 376.18" fill="#fff"/>
    <path d="M979.22,419.77c-22.5-15.15-74.37-20.62-114.21-13.12-5.16-37.5-26.09-70.15-64.22-99.53l-21.87-14.53-14.53,21.88c-28.75,43.43-36.56,115-5.78,162.17C745,484,718.3,494,683,493.36H3.82c-13.59,79.37,9.06,182.49,68.74,253.26,58,68.59,144.84,103.43,258.42,103.43,245.92,0,427.94-113.27,513.09-319,33.44.63,105.62.16,142.65-70.62,2.34-3.9,10.31-20.62,13.28-26.71Z" fill="#fff"/>
    <rect x="199.43" y="263.53" width="103.27" height="93.9" fill="#fff"/>
    <rect x="199.43" y="376.18" width="103.27" height="92.81" fill="#fff"/>
    <rect x="321.45" y="376.18" width="103.27" height="92.81" fill="#fff"/>
  </g>
</svg>
