<svg id="Calque_1" data-name="Calque 1" xmlns="http://www.w3.org/2000/svg" viewBox="0 0 1000 1000">
  <g>
    <path d="M953.13,687.5H666.6l-95.7,95.7a100.08,100.08,0,0,1-141.8,0l-95.7-95.7H46.88A46.77,46.77,0,0,0,0,734.38V953.13A46.76,46.76,0,0,0,46.88,1000H953.13A46.76,46.76,0,0,0,1000,953.13V734.38A46.76,46.76,0,0,0,953.13,687.5ZM718.75,945.31a39.06,39.06,0,1,1,39.06-39.06A39.18,39.18,0,0,1,718.75,945.31Zm125,0a39.06,39.06,0,1,1,39.06-39.06A39.18,39.18,0,0,1,843.75,945.31Z"/>
    <path d="M473.44,738.87a37.84,37.84,0,0,0,53.32,0L823.83,441.6C848.44,417,831.05,375,796.29,375H625V46.88A46.76,46.76,0,0,0,578.13,0H421.88A46.77,46.77,0,0,0,375,46.88V375H203.52c-34.77,0-52.15,42-27.54,66.6Z"/>
  </g>
</svg>
