<svg id="Calque_1" data-name="Calque 1" xmlns="http://www.w3.org/2000/svg" viewBox="0 0 1000 1000">
  <g>
    <path d="M949,335.43v-.06c-21.07-50.65-63.72-105.28-97.2-122.62,27.25,53.41,43,107,49.06,147a4.9,4.9,0,0,0,.1.81C846.16,224,753.27,168.93,677.39,49,673.56,43,669.72,36.91,666,30.51c-2-3.28-3.7-6.63-5.35-10a89.28,89.28,0,0,1-7.23-19.11A1.24,1.24,0,0,0,652.32.06a1.76,1.76,0,0,0-.91,0l-.24.14-.36.2.2-.28C543.29,63.22,498.62,173.68,487.14,244a258.09,258.09,0,0,0-96,24.49A12.41,12.41,0,0,0,385,283.88a12.17,12.17,0,0,0,15.47,7.53l1-.42a234.21,234.21,0,0,1,83.65-21.85l2.82-.2c4-.23,7.94-.39,11.91-.43a243.57,243.57,0,0,1,69.62,9.57c1.33.4,2.62.84,4,1.25,3.75,1.13,7.46,2.39,11.16,3.72,2.7,1,5.38,2,8,3.14,2.17.87,4.33,1.74,6.46,2.68q5,2.24,9.93,4.66c1.49.74,3,1.47,4.47,2.25q4.77,2.5,9.41,5.22c2,1.15,4,2.35,6,3.58a248.07,248.07,0,0,1,84.74,87.65c-25.82-18.17-72.2-36.13-116.84-28.36C771.1,451,724.3,751,482.83,739.68a215.38,215.38,0,0,1-63-12.16c-4.81-1.81-9.54-3.75-14.23-5.82-2.74-1.25-5.48-2.52-8.18-4-59.27-30.47-108.13-88.23-114.23-158.41,0,0,22.34-83.32,160.13-83.32,14.9,0,57.47-41.56,58.26-53.63-.18-4-84.5-37.49-117.37-69.88-17.58-17.3-25.92-25.65-33.31-31.9a137.26,137.26,0,0,0-12.53-9.48A224.56,224.56,0,0,1,337,192.67c-49.78,22.66-88.49,58.5-116.62,90.12h-.24c-19.2-24.33-17.87-104.58-16.74-121.32-.24-1.06-14.34,7.31-16.19,8.56a354.89,354.89,0,0,0-47.35,40.58,424.49,424.49,0,0,0-45.23,54.28,408.83,408.83,0,0,0-65,146.79c-.12.54-4.63,20.28-7.95,44.65q-.82,5.7-1.55,11.4c-1.13,7.33-2,15.32-2.86,27.81a6.89,6.89,0,0,1-.1,1.43q-.53,8.07-1,16.13v2.46c0,267.56,216.92,484.44,484.5,484.44,239.62,0,438.61-174,477.56-402.46.82-6.2,1.47-12.44,2.21-18.69C990.05,495.76,979.35,408.44,949,335.43Z"/>
    <path d="M251,245.29Z"/>
  </g>
</svg>
