<svg id="Calque_1" data-name="Calque 1" xmlns="http://www.w3.org/2000/svg" viewBox="0 0 1000 1000">
  <g>
    <polygon points="357.36 20.97 357.36 20.97 357.36 20.97 357.36 20.97" />
    <path d="M678.53,306.45C649.29,126.41,580.34,0,500.1,0S350.91,126.41,321.67,306.45Z" />
    <path d="M357.36,21A500.73,500.73,0,0,0,39,306.45H256.75C274.29,191.73,308.17,89.11,357.36,21Z" />
    <path d="M306.55,500a1261.82,1261.82,0,0,0,6.66,129H686.79a1261.82,1261.82,0,0,0,6.66-129,1261.82,1261.82,0,0,0-6.66-129H313.21A1261.82,1261.82,0,0,0,306.55,500Z" />
    <path d="M961.19,306.45C903.53,169.56,786.79,63.71,642.64,21c49.19,68.14,83.07,170.76,100.81,285.48Z" />
    <path d="M242,500c0-43.35,2.42-86.69,6.65-129H17.44C6.55,412.3.1,455.24.1,500s6.45,87.7,17.34,129H248.49C244.46,586.69,242,543.35,242,500Z" />
    <path d="M39,693.55C96.67,830.44,213.41,936.29,357.56,979c-49.19-68.14-83.06-170.76-100.81-285.48Z" />
    <path d="M642.84,979c143.95-42.74,260.89-148.59,318.55-285.48H743.65C725.91,808.27,692,910.89,642.84,979Z" />
    <path d="M982.76,371H751.51c4.24,42.34,6.66,85.68,6.66,129s-2.42,86.69-6.66,129h231A495.6,495.6,0,0,0,999.9,500,504.19,504.19,0,0,0,982.76,371Z" />
    <path d="M321.67,693.55C350.91,873.59,419.86,1000,500.1,1000S649.29,873.59,678.53,693.55Z" />
  </g>
</svg>
