<svg id="Calque_1" data-name="Calque 1" xmlns="http://www.w3.org/2000/svg" viewBox="0 0 1000 1000">
  <path d="M656.25,0C466.4,0,312.5,153.9,312.5,343.75A343.35,343.35,0,0,0,329.75,451.5l-316,316A46.87,46.87,0,0,0,0,800.67V953.13A46.88,46.88,0,0,0,46.88,1000H265.63a46.88,46.88,0,0,0,46.87-46.87V875h78.13a46.88,46.88,0,0,0,46.87-46.87V750h72.7a46.92,46.92,0,0,0,35-15.73l46.89-52.76a345.63,345.63,0,0,0,64.12,6C846.1,687.5,1000,533.6,1000,343.75A343,343,0,0,0,656.25,0ZM750,343.75A93.75,93.75,0,1,1,843.75,250,93.75,93.75,0,0,1,750,343.75Z"/>
</svg>
