<?xml version="1.0" encoding="UTF-8" standalone="no"?>
<svg
   xmlns:dc="http://purl.org/dc/elements/1.1/"
   xmlns:cc="http://creativecommons.org/ns#"
   xmlns:rdf="http://www.w3.org/1999/02/22-rdf-syntax-ns#"
   xmlns:svg="http://www.w3.org/2000/svg"
   xmlns="http://www.w3.org/2000/svg"
   xmlns:sodipodi="http://sodipodi.sourceforge.net/DTD/sodipodi-0.dtd"
   xmlns:inkscape="http://www.inkscape.org/namespaces/inkscape"
   viewBox="0 0 1000 1000"
   version="1.1"
   id="svg7"
   sodipodi:docname="logo2.svg"
   width="1000"
   height="1000"
   inkscape:version="0.92.5 (2060ec1f9f, 2020-04-08)"
   inkscape:export-filename="/home/julien/www/girouette/front/public/favicon.ico.png"
   inkscape:export-xdpi="11.625"
   inkscape:export-ydpi="11.625">
  <metadata
     id="metadata13">
    <rdf:RDF>
      <cc:Work
         rdf:about="">
        <dc:format>image/svg+xml</dc:format>
        <dc:type
           rdf:resource="http://purl.org/dc/dcmitype/StillImage" />
        <dc:title></dc:title>
      </cc:Work>
    </rdf:RDF>
  </metadata>
  <defs
     id="defs11">
    <inkscape:path-effect
       effect="bend_path"
       id="path-effect830"
       is_visible="true"
       bendpath="m -14.694552,29.137136 h 3.948412"
       prop_scale="0.95809295"
       scale_y_rel="true"
       vertical="false" />
  </defs>
  <sodipodi:namedview
     pagecolor="#ffffff"
     bordercolor="#666666"
     borderopacity="1"
     objecttolerance="10"
     gridtolerance="10"
     guidetolerance="10"
     inkscape:pageopacity="0"
     inkscape:pageshadow="2"
     inkscape:window-width="1920"
     inkscape:window-height="1043"
     id="namedview9"
     showgrid="false"
     inkscape:zoom="0.25"
     inkscape:cx="1105.2891"
     inkscape:cy="-101.68257"
     inkscape:window-x="0"
     inkscape:window-y="0"
     inkscape:window-maximized="1"
     inkscape:current-layer="g4848"
     units="px"
     showguides="false"
     inkscape:pagecheckerboard="false" />
  <g
     id="g4594"
     transform="matrix(-1,0,0,1,-17.647696,981.50754)">
    <g
       id="g4658"
       transform="matrix(19.015201,0,0,19.015201,317.72178,-440.56191)"
       style="fill:#00000c;fill-opacity:1">
      <g
         id="g4775"
         transform="matrix(1.043493,0,0,1.043493,0.3569044,0.0936537)"
         style="fill:#00a8e8;fill-opacity:0.98823529">
        <g
           id="g4848"
           transform="translate(0.05039756,-0.20159026)"
           style="fill:#42ff09;fill-opacity:1">
          <g
             transform="translate(-0.10079513,0.40318052)"
             id="g4840"
             style="fill:#42ff09;fill-opacity:1" />
          <g
             id="g5743"
             transform="matrix(1.9531464,0,0,1.9550384,15.27812,-23.935552)"
             style="fill:#ffffff;fill-opacity:1">
            <path
               sodipodi:type="inkscape:offset"
               inkscape:radius="0.099437013"
               inkscape:original="M -46.486328 9.3476562 L -47.962891 10.201172 L -46.486328 11.052734 L -46.486328 9.3476562 z "
               style="opacity:1;fill:#ffffff;fill-opacity:1;stroke:#fdffff;stroke-width:0;stroke-linecap:round;stroke-linejoin:round;stroke-miterlimit:4;stroke-dasharray:none;stroke-opacity:1"
               id="path4577"
               d="m -46.490234,9.2480469 a 0.09944696,0.09944696 0 0 0 -0.04492,0.013672 l -1.476563,0.8535152 a 0.09944696,0.09944696 0 0 0 0,0.171875 l 1.476563,0.851563 a 0.09944696,0.09944696 0 0 0 0.148437,-0.08594 V 9.3476562 a 0.09944696,0.09944696 0 0 0 -0.103515,-0.099609 z"
               transform="matrix(1.7070389,0,0,1.9083968,39.562074,0.59393967)" />
            <path
               d="m -16.916392,6.8645098 a 5.3918116,5.3918116 0 0 0 -2.537943,-0.8108783 2.8433382,2.8433382 0 0 0 -0.463358,0 4.4650941,4.4650941 0 0 0 -1.727065,-2.3799793 0.52654412,0.52654412 0 0 0 -0.673977,0.073716 4.2755382,4.2755382 0 0 0 -0.758223,3.4541295 0.54760587,0.54760587 0 0 1 -0.136902,0.4317662 0.47388971,0.47388971 0 0 1 -0.35805,0.1579632 h -0.473889 V 5.20063 a 0.52654412,0.52654412 0 0 0 -0.526545,-0.5265442 h -2.63272 v -5.7919849 a 0.52654412,0.52654412 0 0 0 -0.526544,-0.5265442 h -3.159265 a 0.52654412,0.52654412 0 0 0 -0.526544,0.5265442 v 2.6327206 h -5.791985 a 0.52654412,0.52654412 0 0 0 -0.526545,0.5265437 v 2.6327206 h -2.63272 A 0.52654412,0.52654412 0 0 0 -40.895211,5.20063 v 2.6327207 h -0.526544 a 0.52654412,0.52654412 0 0 0 -0.526544,0.5265441 c 0,8.0771872 5.886763,8.9512502 8.424706,8.9512502 a 15.048631,15.048631 0 0 0 13.037232,-7.4558649 5.4023426,5.4023426 0 0 0 3.738463,-2.2852015 0.52654412,0.52654412 0 0 0 -0.168494,-0.7055688 z m -8.182495,0.9688409 h -2.106177 V 5.7271742 h 2.106177 z m -11.583971,0 V 5.7271742 h 2.106176 v 2.1061765 z m 3.159265,0 V 5.7271742 h 2.106176 v 2.1061765 z m 5.265441,-5.2654413 v 2.1061764 h -2.106177 V 2.5679094 Z m -2.106177,5.2654413 V 5.7271742 h 2.106177 v 2.1061765 z m 0,-8.42470609 h 2.106177 V 1.5148215 h -2.106177 z m -1.053088,5.26544119 h -2.106176 V 2.5679094 h 2.106176 z m -5.265441,-2.1061764 h 2.106176 v 2.1061764 h -2.106176 z m -3.159265,3.1592648 h 2.106176 v 2.1061765 h -2.106176 z m 3.159265,7.3716178 a 1.0530882,1.0530882 0 1 1 1.053088,-1.053088 1.0530882,1.0530882 0 0 1 -1.053088,1.053088 z"
               style="fill:#ffffff;fill-opacity:1;stroke-width:1.05308819"
               id="path4"
               inkscape:connector-curvature="0" />
            <path
               style="opacity:1;fill:#ffffff;fill-opacity:1;stroke:#fdffff;stroke-width:0;stroke-linecap:round;stroke-linejoin:round;stroke-miterlimit:4;stroke-dasharray:none;stroke-opacity:0.95955057"
               d="m -20.292983,19.133831 -1.630958,0.941643 1.574918,0.909262 H -32.46096 a 1.6153064,1.6153064 0 0 0 0.29373,-0.925503 1.6153064,1.6153064 0 0 0 -0.292227,-0.925402 z m -14.811055,0 a 1.6153064,1.6153064 0 0 0 -0.29383,0.925402 1.6153064,1.6153064 0 0 0 0.292326,0.925503 h -5.121343 v -1.850905 z"
               id="rect5567"
               inkscape:connector-curvature="0" />
            <circle
               style="opacity:1;fill:#ffffff;fill-opacity:1;stroke:#fdffff;stroke-width:0;stroke-linecap:round;stroke-linejoin:round;stroke-miterlimit:4;stroke-dasharray:none;stroke-opacity:0.95955057"
               id="path5631"
               cx="33.813602"
               cy="20.059284"
               r="1.0561619"
               transform="scale(-1,1)" />
            <path
               id="path5721"
               style="opacity:1;fill:#ffffff;fill-opacity:1;stroke:#fdffff;stroke-width:0;stroke-linecap:round;stroke-linejoin:round;stroke-miterlimit:4;stroke-dasharray:none;stroke-opacity:0.95955057"
               d="m -34.739067,21.320996 a 1.6153063,1.6095309 0 0 0 0.925465,0.292673 1.6153063,1.6095309 0 0 0 0.925464,-0.2913 v 2.811486 h -1.850929 z m 1.850929,-5.143357 v 2.509691 a 1.6153063,1.6095309 0 0 0 -0.925464,-0.292673 1.6153063,1.6095309 0 0 0 -0.925465,0.291202 v -2.50822 z"
               inkscape:connector-curvature="0" />
          </g>
        </g>
      </g>
    </g>
  </g>
</svg>
