<svg id="Calque_1" data-name="Calque 1" xmlns="http://www.w3.org/2000/svg" viewBox="0 0 1000 1000">
  <path d="M928.73,889l-67.24-29.51-58.64-25.8-3.91,4.1-4.1,3.91,5.67,16.23c3.12,8.79,6.06,17.2,6.64,18.38.59,2-21.11,2.54-105,2.54H596.42V811.19l8.6-6.06a61,61,0,0,0,14.27-15.63c4.69-8,5.46-11.34,5.46-24-.19-21.9-9.58-36.75-27.36-43.2-3.72-1.36-6.84-3.12-6.84-4.1,0-4.1,19.15-13.88,36.55-18.37,25-6.64,29.72-9.18,29.91-16,0-3.52-9.18-11.72-18.17-16.41-4.3-2.16-7.24-4.11-6.65-4.7.39-.39,9-2.15,19.16-3.71,71.53-11.36,133.1-47.72,174.15-102.65,19.15-25.6,30.88-50.23,38.9-81.51,8.6-33,5.08-92.25-8-133.88-2.15-6.65-3.91-12.51-3.91-12.71-.19-1.56,24.62-2.35,30.1-1,8,2.35,8,2.35-4.1-12.51-22.28-27-49.64-62-49.06-62.55.39-.19,4.49.39,9.18,1.37,11.53,2.54,35.19,2.54,41.64,0,6.25-2.35,8.4-8.8,6.64-19.94-1.56-9.38-10.55-28-17.59-36.36-2.74-3.32-5.09-6.45-5.09-6.84s7.63-6.06,16.81-12.31l16.81-11.53L878.07,163c-11-2-22.67-4.7-26.19-6.26L845.62,154l5.08-2c2.93-1.18,14.46-3.13,25.41-4.5,26.39-2.93,27.18-3.12,22.29-7-7.62-5.67-17.59-8.8-32.26-9.78l-14.85-1.17L862.43,119c12.9-12.13,16.81-20.33,12.32-24.83-1.57-1.75-8.22-4.89-14.67-7.23C847,82.08,846.2,81.3,844.64,70.74c-1.36-10.95-8-15-25.21-16.42-12.32-.78-14.86-.38-26.39,5.28-15.24,7.23-20.52,7.62-28.14,1.17S750.43,52,739.68,52C726.19,52,718,56.86,710,70c-3.91,6.25-8.2,11.33-9.78,11.33-1.36,0-9.18-3.32-17.2-7.23-23.65-11.73-37.53-9.58-48.87,7.23-7,10.17-6.06,21.7,2.16,30.89,11.14,12.12,25,18.57,40.65,18.77,7.23.19,13.28.38,13.28.78s-6.25,11-14.07,23.46c-31.08,51-45.54,85-44.17,104.18l.58,9.19-9-6.64c-17.78-12.9-30.1-17.21-49.65-17.4-20.73,0-30.3,2.54-43.79,11.72l-10,6.65,1.37-16c1-8.79,1.56-33.62,1.37-55.12-.2-32-1-42.8-4.49-59.22C503.73,63.31,473.24,27.15,416.56,12.88,376.71,2.75,309.67-2.52,268.81,1.19c-38.5,3.33-84.63,15.25-111,28.74-38.89,19.73-69,51.39-82.09,86.77-9,24-11.33,39.09-11.33,71.15.19,49.85,8.21,94.41,27.75,153.44,22.48,68.22,58.44,140.74,102.62,207,7.24,11,13.49,19.56,13.88,19.16s-2.73-9.38-6.84-20.14c-10.35-26.77-24.82-71.73-27.56-85.8-1.17-6.45-2-15.25-1.56-19.54.58-7.63,1-7.24,14.66,19.94,14.45,28.72,27.55,50.42,38.89,64.5,3.72,4.5,6.65,9,6.65,10,0,2.54,34.2,34.79,45.54,42.8l8.79,6.45-8.79-13.09c-22.29-33.43-36-69.39-42.62-113-2.73-17.4-7.62-110.25-6.06-111.81.39-.39,1.76,6.45,2.93,15.44,8.41,57.86,27.18,110.44,50.24,141.52,22.67,30.3,67.82,68.41,100.85,85,13.49,6.85,14.67,7,10.76,1.18C371,555.13,347,497.07,340.36,460.71c-2.74-14.85-2.93-51.41-.39-56.1,1.17-2.15,3.32-9.38,4.89-16.42,4.69-20.52,10.95-34.79,18.76-43.19,8.22-8.41,13.49-9.58,18.77-3.72s5.86,21.31,2,50c-4.5,33-4.5,82.88,0,109.27,7.23,43.19,23.46,78,47.88,102.82,26,26.58,51.22,40.26,99.69,54,1.75.38-1.37,3.12-7.62,6.44-16.62,9.19-23.66,15.25-23.66,20.53,0,6.64,5.47,9.58,29.91,16.22,17,4.69,22.48,7,27.76,12.12l6.64,6.45-9.38,4.3c-31.27,14.66-34.4,59.81-5.48,81.11l9.19,6.85v67.44H372.61l-12.7-19.75L347.2,839.33l-49.64,1.17-49.85,1-7.43,7.43-7.42,7.43,11.72,17.59c6.45,9.77,11.72,18.38,11.72,19.15,0,1-7,12.51-15.63,25.81s-16.22,25.6-16.8,27.17c-1.18,2.74,5.47,3.12,61,3.12H347.2l13.3-20.52,13.29-20.52H559.3V1000h37.14V908.13H702c58,0,105.55.58,105.55,1.37s-4.1,11.92-9,24.62-8.6,23.46-8.21,24c.78.59,134.67-58.44,143.66-63.52C936.93,893.08,936.35,892.3,928.73,889Z" fill="#fff"/>
</svg>
