<svg id="Calque_1" data-name="Calque 1" xmlns="http://www.w3.org/2000/svg" viewBox="0 0 1000 1000">
  <g>
    <rect x="428.57" width="158.73" height="571.43" rx="47.62"/>
    <path d="M793.65,107.34a47.56,47.56,0,0,0-69,15.48l-31.35,55.75a47.35,47.35,0,0,0,12.9,61.31A333.49,333.49,0,0,1,841.27,505.75c1.19,188.3-151.59,335.52-333.33,335.52-185.52,0-333.53-150.4-333.34-333.53,0-109.72,52.58-206.55,134.92-267.66a47.6,47.6,0,0,0,13.1-61.51l-31.35-55.75C277.38,98,245,91.07,221.83,107.54,97,197,15.68,343.45,15.87,508.73c.4,271,222.23,491.86,493.06,491.27C780.16,999.4,1000,779.36,1000,507.94,1000,342.66,918.65,196.63,793.65,107.34Z"/>
  </g>
</svg>
