<svg id="Calque_1" data-name="Calque 1" xmlns="http://www.w3.org/2000/svg" viewBox="0 0 1000 1000">
  <path d="M948.78,342h0L675.7,302.21,553.64,54.73c-21.86-44.11-85.23-44.67-107.28,0L324.3,302.21,51.22,342c-49,7.1-68.6,67.48-33.09,102.06L215.7,636.6,169,908.56c-8.41,49.16,43.37,86,86.73,63L500,843.14,744.3,971.55c43.36,22.81,95.14-13.83,86.73-63l-46.73-272L981.87,444.08C1017.38,409.5,997.76,349.12,948.78,342ZM688,605.2l44.3,258.69L500,741.83,267.66,863.89,312,605.2,123.93,422l259.81-37.76L500,148.75,616.26,384.26,876.07,422Z"/>
</svg>
